<?xml version="1.0" standalone="no"?>
<!DOCTYPE svg PUBLIC "-//W3C//DTD SVG 20010904//EN"
 "http://www.w3.org/TR/2001/REC-SVG-20010904/DTD/svg10.dtd">
<svg version="1.0" xmlns="http://www.w3.org/2000/svg"
 width="408.000000pt" height="408.000000pt" viewBox="0 0 408.000000 408.000000"
 preserveAspectRatio="xMidYMid meet">
<metadata>
Created by potrace 1.14, written by Peter Selinger 2001-2017
</metadata>
<g transform="translate(0.000000,408.000000) scale(0.100000,-0.100000)"
fill="#000000" stroke="none">
<path d="M883 3840 c-70 -42 -68 -22 -70 -650 -2 -311 -3 -573 -3 -582 0 -17
-20 -18 -285 -18 -296 0 -331 -4 -364 -43 -11 -14 -13 -144 -13 -741 1 -846 1
-842 95 -1031 52 -104 107 -174 214 -275 109 -101 234 -185 378 -255 189 -91
160 -91 362 9 96 47 202 105 235 127 l61 42 1146 1 c1273 1 1170 -5 1237 68
63 67 59 -23 62 1256 3 1351 15 1202 -108 1337 -41 44 -220 229 -400 412 -220
224 -338 337 -363 348 -32 13 -166 15 -1094 15 -1032 0 -1059 -1 -1090 -20z
m2029 -472 c4 -517 -41 -472 478 -476 l388 -3 7 -302 c9 -397 2 -2003 -8
-2014 -5 -4 -485 -9 -1068 -11 l-1059 -3 46 71 c58 90 109 199 129 275 28 111
36 337 33 994 l-3 644 -28 21 c-28 20 -39 21 -453 24 l-424 3 0 522 c0 287 5
540 10 561 4 21 15 43 22 47 7 5 444 9 970 9 l957 0 3 -362z m745 -330 c-12
-9 -588 0 -597 9 -8 7 -13 541 -5 581 l7 37 304 -310 c211 -215 300 -312 291
-317z m-1920 -1286 c-3 -472 -8 -746 -16 -782 -38 -194 -174 -375 -382 -512
-104 -69 -270 -155 -314 -164 -60 -11 -301 126 -450 255 -105 92 -171 175
-225 286 -79 161 -78 154 -86 947 l-7 698 734 2 c404 2 738 2 742 0 4 -2 6
-331 4 -730z"/>
<path d="M1900 2396 l0 -64 333 -7 c356 -7 872 -4 881 6 9 9 10 108 1 117 -3
4 -279 8 -611 10 l-604 3 0 -65z"/>
<path d="M1882 1918 l3 -63 75 -8 c41 -4 318 -6 615 -5 l540 3 3 68 3 67 -621
0 -621 0 3 -62z"/>
<path d="M1882 1468 l3 -63 605 -3 c680 -3 630 -8 630 74 0 29 -5 44 -16 48
-9 3 -288 6 -620 6 l-605 0 3 -62z"/>
</g>
</svg>
